<svg aria-hidden="true" style="position: absolute; width: 0; height: 0; overflow: hidden;" version="1.1" xmlns="http://www.w3.org/2000/svg" xmlns:xlink="http://www.w3.org/1999/xlink">
<defs>
<symbol id="icon-close" viewBox="0 0 32 32">
<path fill="#3b4262" style="fill: var(--color1, #3b4262)" opacity="0.25" d="M27.152 0l3.395 3.394-11.88 11.88 11.88 11.88-3.394 3.392-11.88-11.878-11.88 11.88-3.394-3.395 11.88-11.88-11.88-11.878 3.394-3.394 11.88 11.88 11.88-11.88z"></path>
</symbol>
<symbol id="icon-lizard" viewBox="0 0 34 32">
<path fill="#3b4262" style="fill: var(--color1, #3b4262)" d="M26.391 1.118c1.722-1.067 3.373-1.298 4.647-0.65 2.858 1.451 2.444 6.851 1.275 9.19-0.66 1.321-1.83 2.286-3.481 2.873-0.64 2.026-1.538 3.767-2.685 5.207 0.726 0.61 1.671 0.98 2.702 0.98 0.002 0 0.005 0 0.007 0h0.048l1.611-1.59c0.406-0.4 1.063-0.401 1.469 0s0.405 1.050 0 1.45l-0.142 0.141h0.324c0.573 0 1.038 0.459 1.038 1.026s-0.465 1.025-1.038 1.025h-0.324l0.142 0.141c0.405 0.4 0.405 1.050 0 1.45-0.203 0.2-0.468 0.3-0.734 0.3s-0.532-0.1-0.734-0.3l-1.612-1.591h-0.048c-0.003 0-0.006 0-0.009 0-1.574 0-3.014-0.577-4.118-1.531l0.008 0.007c-0.221 0.201-0.45 0.394-0.685 0.578-1.99 1.557-4.423 2.462-7.268 2.71 0.208 0.606 0.328 1.303 0.328 2.029 0 0.481-0.053 0.95-0.153 1.402l0.008-0.043-0.011 0.048 1.24 1.952c0.104 0.162 0.166 0.359 0.166 0.571 0 0.371-0.189 0.697-0.476 0.888l-0.004 0.002c-0.159 0.105-0.354 0.168-0.564 0.169h-0c-0.369-0-0.693-0.192-0.878-0.482l-0.003-0.004-0.11-0.173-0.069 0.323c-0.103 0.477-0.52 0.83-1.020 0.833h-0c-0.079-0-0.156-0.009-0.23-0.026l0.007 0.001c-0.475-0.111-0.824-0.531-0.824-1.032 0-0.080 0.009-0.159 0.026-0.234l-0.001 0.007 0.069-0.323-0.171 0.111c-0.16 0.105-0.355 0.168-0.566 0.168-0.369 0-0.692-0.192-0.877-0.482l-0.002-0.004c-0.104-0.162-0.166-0.359-0.166-0.571 0-0.371 0.189-0.697 0.476-0.888l0.004-0.002 1.929-1.255 0.011-0.048c0.061-0.273 0.097-0.586 0.097-0.907 0-0.719-0.176-1.397-0.488-1.993l0.011 0.024c-0.932-0.028-1.816-0.105-2.685-0.228l0.127 0.015c-2.498-0.338-3.915 0.764-4.29 1.11-2.943 2.716-3.513 7.516-3.518 7.564-0.061 0.529-0.505 0.936-1.045 0.937h-0c-0.36-0-0.678-0.182-0.867-0.459l-0.002-0.004c-0.046-0.069-1.154-1.725-1.64-4.061-0.66-3.173 0.127-6.084 2.275-8.418 1.247-1.346 2.814-2.377 4.582-2.972l0.078-0.023-0.217 0.057c-0.527-0.252-1.146-0.398-1.799-0.398-0 0-0.001 0-0.001 0h-0.048l-1.617 1.591c-0.189 0.186-0.448 0.3-0.734 0.3-0.001 0-0.002 0-0.003 0h0c-0.267 0-0.533-0.1-0.737-0.3-0.189-0.184-0.305-0.441-0.305-0.725s0.117-0.541 0.305-0.725l0-0 0.143-0.141h-0.325c-0.576 0-1.042-0.459-1.042-1.025s0.467-1.025 1.042-1.025h0.325l-0.143-0.141c-0.189-0.184-0.306-0.441-0.306-0.725s0.117-0.541 0.305-0.725l0-0c0.407-0.4 1.067-0.4 1.474 0l1.617 1.591h0.048c0.004 0 0.009 0 0.014 0 1.813 0 3.449 0.762 4.603 1.984l0.003 0.003-0.116-0.119c0.363-0.038 0.785-0.060 1.212-0.060 0.579 0 1.149 0.040 1.707 0.118l-0.064-0.007c2.638 0.357 4.795-0.010 6.46-1.094-0.9-1.108-1.445-2.536-1.445-4.092 0-0.005 0-0.010 0-0.016v0.001-0.049l-1.594-1.646c-0.186-0.194-0.301-0.459-0.301-0.75s0.115-0.555 0.301-0.75l-0 0c0.183-0.192 0.441-0.311 0.727-0.311s0.543 0.119 0.726 0.31l0 0 0.141 0.146v-0.331c0-0.586 0.46-1.061 1.027-1.061s1.028 0.475 1.028 1.061v0.331l0.141-0.145c0.183-0.192 0.441-0.311 0.727-0.311s0.543 0.119 0.726 0.31l0 0c0.611 0.631 0.171 1.324 0 1.5l-1.595 1.646v0.049c0 1.002 0.339 1.959 0.945 2.719 0.753-0.899 1.345-2.031 1.773-3.392-0.313-0.867-0.8-2.919 0.442-5.246 0.651-1.219 1.901-2.5 3.262-3.343z"></path>
</symbol>
<symbol id="icon-paper" viewBox="0 0 27 32">
<path fill="#3b4262" style="fill: var(--color1, #3b4262)" d="M25.559 6.417c-0.172-0.070-0.371-0.11-0.58-0.11-0.031 0-0.062 0.001-0.093 0.003l0.004-0c-0.309 0.022-0.558 0.147-0.706 0.353-0.87 1.219-1.583 3.522-2.158 5.372-0.264 0.855-0.618 2-0.874 2.544-0.267-1.522 0.035-7.1 0.152-9.247l0.002-0.035c0.081-1.492 0.092-1.754 0.075-1.869-0.129-0.818-0.457-1.356-0.976-1.596-0.524-0.244-1.204-0.136-1.937 0.305-0.367 0.222-0.469 0.985-0.784 4.442l-0.001 0.015c-0.174 1.899-0.574 6.273-1.066 7.002-0.555-1.020-1.319-6.809-1.648-9.316-0.23-1.755-0.365-2.763-0.456-3.067-0.19-0.638-0.993-1.18-1.787-1.211-0.662-0.033-1.204 0.304-1.463 0.888-0.485 0.54-0.313 2.328 0.222 6.564 0.255 2.017 0.781 6.18 0.45 6.648-0.661-0.072-1.795-2.68-3.371-7.755-0.443-1.421-0.579-1.848-0.715-2.036-0.268-0.652-1.178-1.155-1.994-1.098-0.077 0.005-0.147 0.015-0.215 0.028l0.011-0.002c-0.427 0.085-1.402 0.478-1.193 2.292 0.575 2.515 1.2 4.361 1.807 6.154l0.012 0.036c0.363 1.074 0.706 2.088 1.025 3.214 0.751 2.658 0.459 4.306 0.456 4.325-0.025 0.169-0.078 0.273-0.156 0.309-0.031 0.014-0.067 0.023-0.105 0.024l-0.001 0c-0.239 0.016-0.596-0.141-0.779-0.244-0.421-0.804-2.514-4.634-4.412-5.166l-0.068-0.020-0.069 0.007c-0.696 0.066-1.207 0.329-1.52 0.782-0.496 0.716-0.29 1.628-0.241 1.812l0.028 0.065c0.015 0.028 1.537 2.801 1.772 4.092 0.203 1.106 1.253 2.305 2.098 3.268l0.035 0.040c0.276 0.315 0.513 0.587 0.701 0.84 2.451 2.556 6.327 4.706 6.358 4.724 0.484 0.356 0.752 0.701 0.781 0.998 0.002 0.015 0.003 0.033 0.003 0.051 0 0.1-0.034 0.192-0.091 0.265l0.001-0.001-0.084 0.088 0.536 0.521 10.225-0.718 0.436-1.998c1.348-5.642 1.067-10.453 1.062-10.484 0.005-0.177 0.383-1.889 0.687-3.272l0.009-0.035c0.606-2.755 1.359-6.183 1.503-7.486 0.063-0.558-0.294-1.070-0.908-1.302z"></path>
</symbol>
<symbol id="icon-rock" viewBox="0 0 32 32">
<path fill="#3b4262" style="fill: var(--color1, #3b4262)" d="M30.040 8.147c-0.428-5.397-6.489-4.846-6.489-4.846-2.558-4.51-6.555-1.243-6.555-1.243-3.071-4.42-6.92-0.324-6.92-0.324-6.638-0.716-6.381 4.711-6.381 4.711-0.156 1.725 0.935 7.062 0.935 7.062-0.985-3.076-3.12-0.523-3.12-0.523-2.627 4.052-0.65 6.27-0.65 6.27 3.553 4.164 11.125 9.162 11.125 9.162 2.742 1.571 1.582 2.971 1.582 2.971l16.584-2.74 0.381-3.145c2.521-7.624-0.493-17.355-0.493-17.355z"></path>
</symbol>
<symbol id="icon-scissors" viewBox="0 0 28 32">
<path fill="#3b4262" style="fill: var(--color1, #3b4262)" d="M7.708 14.18l3.317-4.643c-1.379-0.229-3.911-0.28-5.984 1.785-3.269 3.255-4.593 10.285-4.869 11.987l8.308 8.271c1.496-0.128 8.118-1.008 14.499-7.36 0.067-0.137 1.622-1.281 0.351-2.546-0.607-0.604-1.61-0.593-2.23 0.024-0.316 0.314-0.806 0.318-1.115 0.011s-0.305-0.796 0.011-1.11l2.255-2.245c1.145-1.14 0.066-3.065-1.534-2.602l-1.846 1.573c-0.337 0.292-0.839 0.242-1.116-0.077-0.286-0.329-0.225-0.829 0.101-1.111 6.448-5.632 5.506-4.954 9.655-8.825 1.55-1.285-0.4-3.557-1.927-2.257l-10.036 8.985c-0.292 0.247-0.739 0.252-1.026-0.011-0.332-0.285-0.339-0.696-0.122-1.021l7-10.834c1.023-1.379-0.99-2.911-2.068-1.521l-10.349 14.411c-0.249 0.359-0.753 0.441-1.095 0.19-0.199-0.139-0.327-0.367-0.327-0.624 0-0.17 0.056-0.327 0.15-0.454l-0.001 0.002z"></path>
</symbol>
<symbol id="icon-spock" viewBox="0 0 24 32">
<path fill="#3b4262" style="fill: var(--color1, #3b4262)" d="M23.887 17.585l-0.468-0.466c-1.118-1.114-2.947-1.356-4.312-0.575l-2.916 1.659 0.607-13.289c0-1.114-0.91-2.021-2.030-2.021-0.242 0-0.475 0.043-0.69 0.12l0.073-0.713c0-1.127-0.925-2.043-2.060-2.043-1.050 0-1.93 0.784-2.042 1.789l-1.871 11.254c-0.024 0.153-0.291 0.137-0.319 0.041l-2.21-9.022c-0.249-0.829-1.004-1.424-1.899-1.426h-0c-0.606 0-1.17 0.272-1.547 0.746-0.266 0.33-0.428 0.755-0.428 1.218 0 0.161 0.019 0.317 0.056 0.466l-0.003-0.013 0.43 1.817c-0.042-0.003-0.091-0.005-0.14-0.005-0.209 0-0.41 0.035-0.596 0.1l0.013-0.004c-0.753 0.253-1.285 0.952-1.285 1.776 0 0.104 0.009 0.206 0.025 0.306l-0.001-0.011 1.301 7.445c0 2.937 0.517 5.111 0.951 6.416 0.236 0.691 0.373 1.488 0.373 2.316 0 0.004 0 0.008 0 0.012v-0.001c0 0.696-0.097 1.39-0.29 2.059l-1.009 3.516c-0.056 0.198-0.016 0.412 0.107 0.578 0.126 0.165 0.321 0.262 0.529 0.262h11.916c0.001 0 0.001 0 0.002 0 0.365 0 0.661-0.296 0.661-0.661 0-0.074-0.012-0.145-0.035-0.212l0.001 0.005c-0.007-0.017-0.56-1.719-0.036-4.034 0.664-0.537 2.991-2.42 3.826-3.179 1.381-1.256 5.164-5.135 5.324-5.3 0.116-0.118 0.187-0.28 0.187-0.459 0-0.182-0.074-0.347-0.194-0.466l-0-0z"></path>
</symbol>
</defs>
</svg>
